<svg id="visual" viewBox="0 0 960 540" width="960" height="540" xmlns="http://www.w3.org/2000/svg" xmlns:xlink="http://www.w3.org/1999/xlink" version="1.1"><path d="M0 464L31 464L31 457L62 457L62 461L93 461L93 447L124 447L124 446L155 446L155 455L186 455L186 466L217 466L217 471L248 471L248 446L279 446L279 459L310 459L310 461L341 461L341 445L372 445L372 457L403 457L403 461L434 461L434 474L465 474L465 461L495 461L495 451L526 451L526 451L557 451L557 461L588 461L588 467L619 467L619 460L650 460L650 451L681 451L681 474L712 474L712 444L743 444L743 465L774 465L774 461L805 461L805 450L836 450L836 457L867 457L867 459L898 459L898 472L929 472L929 449L960 449L960 452L960 541L960 541L929 541L929 541L898 541L898 541L867 541L867 541L836 541L836 541L805 541L805 541L774 541L774 541L743 541L743 541L712 541L712 541L681 541L681 541L650 541L650 541L619 541L619 541L588 541L588 541L557 541L557 541L526 541L526 541L495 541L495 541L465 541L465 541L434 541L434 541L403 541L403 541L372 541L372 541L341 541L341 541L310 541L310 541L279 541L279 541L248 541L248 541L217 541L217 541L186 541L186 541L155 541L155 541L124 541L124 541L93 541L93 541L62 541L62 541L31 541L31 541L0 541Z" fill="#38a1f4" stroke-linecap="square" stroke-linejoin="miter"></path></svg>